# xmcd
#
# Track frame offsets:
#	150
#	11729
#	25845
#	45321
#	57530
#	72028
#	84014
#	100123
#	111462
#	130464
#	145041
#	155937
#	166892
#	180198
#	189708
#	200479
#	211756
#	228755
#
# Disc length: 3310 seconds
#
# Revision: 0
# Processed by: cddbd v1.5.2PL0 Copyright (c) Steve Scherf et al.
# Submitted via: FairStars CD Ripper 1.60
#
DISCID=ec0cec12
DTITLE=Various Artist - Ten Guitars Heartland
DYEAR=2013
DGENRE=Coun
TTITLE0=Johnny Cash - Ring Of Fire
TTITLE1=Helen Reddy - Delta Dawn
TTITLE2=Kenny Rogers - Coward Of The County
TTITLE3=Freddy Fender - Wasted Days And Wasted Nights
TTITLE4=Glen Campbell - Rhinestone Cowboy
TTITLE5=Dolly Parton - Jolene
TTITLE6=Willie Nelson - Blue Skies
TTITLE7=Crystal Gayle - Don't It Make My Brown Eyes Blue
TTITLE8=Bobbie Gentry - Ode To Billie Joe
TTITLE9=Jeanne C. Riley - Harper Valley PTA
TTITLE10=The Statler Brothers - Flowers On The Wall
TTITLE11=Roger Miller - King Of The Road
TTITLE12=Gene Pitney - The Man Shot Liberty Valance
TTITLE13=George Jones - The Race Is On
TTITLE14=Bill and Boyd - Put Another Log On The Fire
TTITLE15=John Hore - I've Been Everywhere
TTITLE16=C.W. McCall - Convoy
TTITLE17=Mac Davis - It's Hard To Be Humble
EXTD=
EXTT0=
EXTT1=
EXTT2=
EXTT3=
EXTT4=
EXTT5=
EXTT6=
EXTT7=
EXTT8=
EXTT9=
EXTT10=
EXTT11=
EXTT12=
EXTT13=
EXTT14=
EXTT15=
EXTT16=
EXTT17=
PLAYORDER=
